# xmcd CD database file
# Copyright (C) 1993-1998 Ti Kan
#
# Track frame offsets:
# 150
# 18225
# 37275
# 57750
# 77025
# 93525
# 108825
# 126825
# 143775
# 160500
# 180000
# 195975
# 214050
#
# Disc length: 3379 seconds
# Revision: 0
# Processed by: cddbd v1.4b41PL1 Copyright (c) Steve Scherf et al.
# Submitted via: CDSpectrumPro v3.3.335
#
DISCID=9f0d310d
DTITLE=Hennie Bekker - Tapestries Lullabies
DYEAR=1900
DGENRE=
TTITLE0=Rock-A-Bye, Baby
TTITLE1=Twinkle, Twinkle, Little Star
TTITLE2=Sweet And Low
TTITLE3=All Through The Night
TTITLE4=Brahms Lullaby
TTITLE5=All The Pretty Little Horses
TTITLE6=Mocking Bird
TTITLE7=Too-Ra-Loo-Ra-Loo-Ra (That's An Irish Lullaby)
TTITLE8=Golden Slumbers
TTITLE9=Frere Jacques
TTITLE10=Bye Baby Bunting
TTITLE11=My Bonnie Lies Over The Ocean
TTITLE12=Nursery Rhymes Medley
EXTD=
EXTT0=
EXTT1=
EXTT2=
EXTT3=
EXTT4=
EXTT5=
EXTT6=
EXTT7=
EXTT8=
EXTT9=
EXTT10=
EXTT11=
EXTT12=
PLAYORDER=
